<mxfile host="app.diagrams.net" modified="2024-02-29T20:35:50.978Z" agent="Mozilla/5.0 (Macintosh; Intel Mac OS X 10_15_7) AppleWebKit/537.36 (KHTML, like Gecko) Chrome/121.0.0.0 Safari/537.36" etag="Np3ib6tnmhqrPGn8-ngq" version="23.1.5" type="device">
  <diagram name="Page-1" id="HlHrOMLHcoadBdeuxYQ7">
    <mxGraphModel dx="893" dy="684" grid="1" gridSize="10" guides="1" tooltips="1" connect="1" arrows="1" fold="1" page="1" pageScale="1" pageWidth="850" pageHeight="1100" math="0" shadow="0">
      <root>
        <mxCell id="0" />
        <mxCell id="1" parent="0" />
        <mxCell id="gSbaOcWXzJc1cmBJP-U4-5" value="Local DevX" style="rounded=0;whiteSpace=wrap;html=1;fillColor=none;verticalAlign=top;" vertex="1" parent="1">
          <mxGeometry x="60" width="340" height="360" as="geometry" />
        </mxCell>
        <mxCell id="gSbaOcWXzJc1cmBJP-U4-1" value="" style="rounded=0;whiteSpace=wrap;html=1;fillColor=none;verticalAlign=top;" vertex="1" parent="1">
          <mxGeometry x="170.84" y="425.2" width="580" height="124.8" as="geometry" />
        </mxCell>
        <mxCell id="gSbaOcWXzJc1cmBJP-U4-2" style="edgeStyle=orthogonalEdgeStyle;rounded=1;orthogonalLoop=1;jettySize=auto;html=1;exitX=0.477;exitY=0.505;exitDx=0;exitDy=0;strokeWidth=2;strokeColor=#4D4D4D;exitPerimeter=0;" edge="1" parent="1" source="gSbaOcWXzJc1cmBJP-U4-33" target="gSbaOcWXzJc1cmBJP-U4-9">
          <mxGeometry relative="1" as="geometry">
            <Array as="points">
              <mxPoint x="548" y="410" />
              <mxPoint x="244" y="410" />
            </Array>
            <mxPoint x="548.6800000000001" y="528.8199999999999" as="sourcePoint" />
          </mxGeometry>
        </mxCell>
        <mxCell id="gSbaOcWXzJc1cmBJP-U4-6" value="Cloud Env" style="rounded=0;whiteSpace=wrap;html=1;fillColor=none;verticalAlign=top;" vertex="1" parent="1">
          <mxGeometry x="490" width="345.32" height="360" as="geometry" />
        </mxCell>
        <mxCell id="gSbaOcWXzJc1cmBJP-U4-7" value="AWS Cloud" style="points=[[0,0],[0.25,0],[0.5,0],[0.75,0],[1,0],[1,0.25],[1,0.5],[1,0.75],[1,1],[0.75,1],[0.5,1],[0.25,1],[0,1],[0,0.75],[0,0.5],[0,0.25]];outlineConnect=0;gradientColor=none;html=1;whiteSpace=wrap;fontSize=12;fontStyle=0;container=1;pointerEvents=0;collapsible=0;recursiveResize=0;shape=mxgraph.aws4.group;grIcon=mxgraph.aws4.group_aws_cloud_alt;strokeColor=#232F3E;fillColor=none;verticalAlign=top;align=left;spacingLeft=30;fontColor=#232F3E;dashed=0;" vertex="1" parent="1">
          <mxGeometry x="515" y="30" width="320.32" height="330" as="geometry" />
        </mxCell>
        <mxCell id="gSbaOcWXzJc1cmBJP-U4-35" value="&lt;font style=&quot;font-size: 14px;&quot;&gt;&lt;b&gt;Lambda URL&lt;/b&gt;&lt;/font&gt;" style="sketch=0;points=[[0,0,0],[0.25,0,0],[0.5,0,0],[0.75,0,0],[1,0,0],[0,1,0],[0.25,1,0],[0.5,1,0],[0.75,1,0],[1,1,0],[0,0.25,0],[0,0.5,0],[0,0.75,0],[1,0.25,0],[1,0.5,0],[1,0.75,0]];outlineConnect=0;fontColor=#232F3E;fillColor=#E7157B;strokeColor=#ffffff;dashed=0;verticalLabelPosition=bottom;verticalAlign=top;align=center;html=1;fontSize=12;fontStyle=0;aspect=fixed;shape=mxgraph.aws4.resourceIcon;resIcon=mxgraph.aws4.application_integration;" vertex="1" parent="gSbaOcWXzJc1cmBJP-U4-7">
          <mxGeometry x="121.16000000000008" y="200" width="78" height="78" as="geometry" />
        </mxCell>
        <mxCell id="gSbaOcWXzJc1cmBJP-U4-9" value="LocalStack Cloud" style="points=[[0,0],[0.25,0],[0.5,0],[0.75,0],[1,0],[1,0.25],[1,0.5],[1,0.75],[1,1],[0.75,1],[0.5,1],[0.25,1],[0,1],[0,0.75],[0,0.5],[0,0.25]];outlineConnect=0;gradientColor=none;html=1;whiteSpace=wrap;fontSize=12;fontStyle=0;container=1;pointerEvents=0;collapsible=0;recursiveResize=0;shape=mxgraph.aws4.group;grIcon=mxgraph.aws4.group_aws_cloud;strokeColor=#232F3E;fillColor=none;verticalAlign=top;align=left;spacingLeft=30;fontColor=#232F3E;dashed=0;" vertex="1" parent="1">
          <mxGeometry x="87.84" y="40" width="312.16" height="320" as="geometry" />
        </mxCell>
        <mxCell id="gSbaOcWXzJc1cmBJP-U4-12" value="&lt;b&gt;&lt;font style=&quot;font-size: 14px;&quot;&gt;Rust Lambda&lt;/font&gt;&lt;/b&gt;" style="sketch=0;points=[[0,0,0],[0.25,0,0],[0.5,0,0],[0.75,0,0],[1,0,0],[0,1,0],[0.25,1,0],[0.5,1,0],[0.75,1,0],[1,1,0],[0,0.25,0],[0,0.5,0],[0,0.75,0],[1,0.25,0],[1,0.5,0],[1,0.75,0]];outlineConnect=0;fontColor=#232F3E;gradientColor=#F78E04;gradientDirection=north;fillColor=#D05C17;strokeColor=#ffffff;dashed=0;verticalLabelPosition=bottom;verticalAlign=top;align=center;html=1;fontSize=12;fontStyle=0;aspect=fixed;shape=mxgraph.aws4.resourceIcon;resIcon=mxgraph.aws4.lambda;" vertex="1" parent="gSbaOcWXzJc1cmBJP-U4-9">
          <mxGeometry x="123" y="50" width="78" height="78" as="geometry" />
        </mxCell>
        <mxCell id="gSbaOcWXzJc1cmBJP-U4-34" value="&lt;font style=&quot;font-size: 14px;&quot;&gt;&lt;b&gt;Lambda URL&lt;/b&gt;&lt;/font&gt;" style="sketch=0;points=[[0,0,0],[0.25,0,0],[0.5,0,0],[0.75,0,0],[1,0,0],[0,1,0],[0.25,1,0],[0.5,1,0],[0.75,1,0],[1,1,0],[0,0.25,0],[0,0.5,0],[0,0.75,0],[1,0.25,0],[1,0.5,0],[1,0.75,0]];outlineConnect=0;fontColor=#232F3E;fillColor=#E7157B;strokeColor=#ffffff;dashed=0;verticalLabelPosition=bottom;verticalAlign=top;align=center;html=1;fontSize=12;fontStyle=0;aspect=fixed;shape=mxgraph.aws4.resourceIcon;resIcon=mxgraph.aws4.application_integration;" vertex="1" parent="gSbaOcWXzJc1cmBJP-U4-9">
          <mxGeometry x="117.07999999999998" y="190" width="78" height="78" as="geometry" />
        </mxCell>
        <mxCell id="gSbaOcWXzJc1cmBJP-U4-37" style="edgeStyle=orthogonalEdgeStyle;rounded=1;orthogonalLoop=1;jettySize=auto;html=1;entryX=0;entryY=0.5;entryDx=0;entryDy=0;entryPerimeter=0;curved=0;strokeColor=#4D4D4D;strokeWidth=2;exitX=0;exitY=0.5;exitDx=0;exitDy=0;exitPerimeter=0;" edge="1" parent="gSbaOcWXzJc1cmBJP-U4-9" source="gSbaOcWXzJc1cmBJP-U4-34" target="gSbaOcWXzJc1cmBJP-U4-12">
          <mxGeometry relative="1" as="geometry">
            <mxPoint x="123.99999999999997" y="230" as="sourcePoint" />
            <mxPoint x="123.99999999999997" y="90" as="targetPoint" />
            <Array as="points">
              <mxPoint x="83" y="229" />
              <mxPoint x="83" y="89" />
            </Array>
          </mxGeometry>
        </mxCell>
        <mxCell id="gSbaOcWXzJc1cmBJP-U4-19" value="&lt;ol style=&quot;font-size: 16px;&quot;&gt;&lt;li&gt;Deploy Lambda and Lambda URL to LocalStack or AWS&lt;/li&gt;&lt;li&gt;&lt;span style=&quot;background-color: initial;&quot;&gt;Run the Rust integration test against LocalStack&lt;br&gt;Execution time &amp;lt; 1ms. Run test against AWS also.&lt;/span&gt;&lt;/li&gt;&lt;li&gt;Solution runs in LocalStack and AWS&lt;/li&gt;&lt;/ol&gt;" style="text;html=1;align=left;verticalAlign=middle;resizable=0;points=[];autosize=1;strokeColor=#666666;fillColor=#f5f5f5;fontColor=#333333;" vertex="1" parent="1">
          <mxGeometry x="370" y="560" width="460" height="120" as="geometry" />
        </mxCell>
        <mxCell id="gSbaOcWXzJc1cmBJP-U4-20" value="&lt;font style=&quot;font-size: 14px;&quot;&gt;1&lt;/font&gt;" style="text;html=1;align=center;verticalAlign=middle;resizable=0;points=[];autosize=1;strokeColor=#6c8ebf;fillColor=#dae8fc;strokeWidth=4;rounded=1;glass=0;shadow=0;" vertex="1" parent="1">
          <mxGeometry x="490" y="454.70000000000005" width="30" height="30" as="geometry" />
        </mxCell>
        <mxCell id="gSbaOcWXzJc1cmBJP-U4-21" value="&lt;font style=&quot;font-size: 14px;&quot;&gt;2&lt;/font&gt;" style="text;html=1;align=center;verticalAlign=middle;resizable=0;points=[];autosize=1;strokeColor=#6c8ebf;fillColor=#dae8fc;strokeWidth=4;rounded=1;glass=0;shadow=0;" vertex="1" parent="1">
          <mxGeometry x="290" y="455" width="30" height="30" as="geometry" />
        </mxCell>
        <mxCell id="gSbaOcWXzJc1cmBJP-U4-23" value="&lt;font style=&quot;font-size: 14px;&quot;&gt;3&lt;/font&gt;" style="text;html=1;align=center;verticalAlign=middle;resizable=0;points=[];autosize=1;strokeColor=#6c8ebf;fillColor=#dae8fc;strokeWidth=4;rounded=1;glass=0;shadow=0;" vertex="1" parent="1">
          <mxGeometry x="370" y="330" width="30" height="30" as="geometry" />
        </mxCell>
        <mxCell id="gSbaOcWXzJc1cmBJP-U4-24" value="&lt;font style=&quot;font-size: 14px;&quot;&gt;3&lt;/font&gt;" style="text;html=1;align=center;verticalAlign=middle;resizable=0;points=[];autosize=1;strokeColor=#6c8ebf;fillColor=#dae8fc;strokeWidth=4;rounded=1;glass=0;shadow=0;" vertex="1" parent="1">
          <mxGeometry x="805.32" y="330" width="30" height="30" as="geometry" />
        </mxCell>
        <mxCell id="gSbaOcWXzJc1cmBJP-U4-26" style="edgeStyle=orthogonalEdgeStyle;rounded=1;orthogonalLoop=1;jettySize=auto;html=1;strokeWidth=2;entryX=0;entryY=0.75;entryDx=0;entryDy=0;entryPerimeter=0;strokeColor=#4D4D4D;" edge="1" parent="1" source="gSbaOcWXzJc1cmBJP-U4-38" target="gSbaOcWXzJc1cmBJP-U4-34">
          <mxGeometry relative="1" as="geometry">
            <Array as="points">
              <mxPoint x="231" y="470" />
              <mxPoint x="160" y="470" />
              <mxPoint x="160" y="289" />
            </Array>
            <mxPoint x="160" y="390" as="targetPoint" />
            <mxPoint x="230.83999999999992" y="552" as="sourcePoint" />
          </mxGeometry>
        </mxCell>
        <mxCell id="gSbaOcWXzJc1cmBJP-U4-27" value="&lt;font style=&quot;font-size: 14px;&quot;&gt;Test&lt;/font&gt;" style="edgeLabel;html=1;align=center;verticalAlign=middle;resizable=0;points=[];" vertex="1" connectable="0" parent="gSbaOcWXzJc1cmBJP-U4-26">
          <mxGeometry x="0.1439" y="3" relative="1" as="geometry">
            <mxPoint as="offset" />
          </mxGeometry>
        </mxCell>
        <mxCell id="gSbaOcWXzJc1cmBJP-U4-29" style="edgeStyle=orthogonalEdgeStyle;rounded=1;orthogonalLoop=1;jettySize=auto;html=1;exitX=0.477;exitY=0.606;exitDx=0;exitDy=0;strokeWidth=2;strokeColor=#4D4D4D;exitPerimeter=0;" edge="1" parent="1" source="gSbaOcWXzJc1cmBJP-U4-33" target="gSbaOcWXzJc1cmBJP-U4-7">
          <mxGeometry relative="1" as="geometry">
            <mxPoint x="548.6800000000001" y="528.8199999999999" as="sourcePoint" />
            <mxPoint x="680" y="390" as="targetPoint" />
            <Array as="points">
              <mxPoint x="549" y="473" />
              <mxPoint x="549" y="410" />
              <mxPoint x="690" y="410" />
            </Array>
          </mxGeometry>
        </mxCell>
        <mxCell id="gSbaOcWXzJc1cmBJP-U4-30" value="&lt;b&gt;&lt;font style=&quot;font-size: 14px;&quot;&gt;Rust Lambda&lt;/font&gt;&lt;/b&gt;" style="sketch=0;points=[[0,0,0],[0.25,0,0],[0.5,0,0],[0.75,0,0],[1,0,0],[0,1,0],[0.25,1,0],[0.5,1,0],[0.75,1,0],[1,1,0],[0,0.25,0],[0,0.5,0],[0,0.75,0],[1,0.25,0],[1,0.5,0],[1,0.75,0]];outlineConnect=0;fontColor=#232F3E;gradientColor=#F78E04;gradientDirection=north;fillColor=#D05C17;strokeColor=#ffffff;dashed=0;verticalLabelPosition=bottom;verticalAlign=top;align=center;html=1;fontSize=12;fontStyle=0;aspect=fixed;shape=mxgraph.aws4.resourceIcon;resIcon=mxgraph.aws4.lambda;" vertex="1" parent="1">
          <mxGeometry x="636.1600000000001" y="90" width="78" height="78" as="geometry" />
        </mxCell>
        <mxCell id="gSbaOcWXzJc1cmBJP-U4-33" value="AWS CLI" style="html=1;verticalLabelPosition=bottom;align=center;labelBackgroundColor=#ffffff;verticalAlign=top;strokeWidth=2;strokeColor=#0080F0;shadow=0;dashed=0;shape=mxgraph.ios7.icons.tools;pointerEvents=1" vertex="1" parent="1">
          <mxGeometry x="533.83" y="455" width="29.7" height="29.7" as="geometry" />
        </mxCell>
        <mxCell id="gSbaOcWXzJc1cmBJP-U4-36" style="edgeStyle=orthogonalEdgeStyle;rounded=1;orthogonalLoop=1;jettySize=auto;html=1;entryX=0;entryY=0.5;entryDx=0;entryDy=0;entryPerimeter=0;curved=0;strokeColor=#4D4D4D;strokeWidth=2;" edge="1" parent="1" source="gSbaOcWXzJc1cmBJP-U4-35" target="gSbaOcWXzJc1cmBJP-U4-30">
          <mxGeometry relative="1" as="geometry">
            <Array as="points">
              <mxPoint x="595.32" y="269" />
              <mxPoint x="595.32" y="129" />
            </Array>
          </mxGeometry>
        </mxCell>
        <mxCell id="gSbaOcWXzJc1cmBJP-U4-42" style="edgeStyle=orthogonalEdgeStyle;rounded=1;orthogonalLoop=1;jettySize=auto;html=1;exitX=1;exitY=0.75;exitDx=0;exitDy=0;fontColor=#4D4D4D;strokeColor=#4D4D4D;curved=0;strokeWidth=2;" edge="1" parent="1" source="gSbaOcWXzJc1cmBJP-U4-38" target="gSbaOcWXzJc1cmBJP-U4-35">
          <mxGeometry relative="1" as="geometry">
            <Array as="points">
              <mxPoint x="283" y="510" />
              <mxPoint x="780" y="510" />
              <mxPoint x="780" y="269" />
            </Array>
          </mxGeometry>
        </mxCell>
        <mxCell id="gSbaOcWXzJc1cmBJP-U4-44" value="&lt;font style=&quot;font-size: 14px;&quot;&gt;Test&lt;/font&gt;" style="edgeLabel;html=1;align=center;verticalAlign=middle;resizable=0;points=[];" vertex="1" connectable="0" parent="gSbaOcWXzJc1cmBJP-U4-42">
          <mxGeometry x="0.0179" y="1" relative="1" as="geometry">
            <mxPoint as="offset" />
          </mxGeometry>
        </mxCell>
        <mxCell id="gSbaOcWXzJc1cmBJP-U4-38" value="Rust Integration Test" style="shape=image;verticalLabelPosition=bottom;labelBackgroundColor=default;verticalAlign=top;aspect=fixed;imageAspect=0;image=data:image/jpeg,/9j/4AAQSkZJRgABAQAAAQABAAD/2wCEAAkGBwgHBgkIBwgKCgkLDRYPDQwMDRsUFRAWIB0iIiAdHx8kKDQsJCYxJx8fLT0tMTU3Ojo6Iys/RD84QzQ5OjcBCgoKDQwNGg8PGjclHyU3Nzc3Nzc3Nzc3Nzc3Nzc3Nzc3Nzc3Nzc3Nzc3Nzc3Nzc3Nzc3Nzc3Nzc3Nzc3Nzc3N//AABEIAJQAlAMBEQACEQEDEQH/xAAbAAACAgMBAAAAAAAAAAAAAAAABgUHAQMEAv/EAEUQAAEDAwIDBAQKBwcFAQAAAAECAwQABREGIRIxQQcTUWFxgZGhFBUiIzJCk7HB0RY2UlVzsuE0VHKCktLwM0NTYsIm/8QAGQEAAgMBAAAAAAAAAAAAAAAAAAMBBAUC/8QAKhEAAwACAgICAQQBBQEAAAAAAAECAxEEEiExE0EiFDJR8JEjYXGB8QX/2gAMAwEAAhEDEQA/ALxoAKACgAoAKAI293232Jlt25OqbS4rhTwoKiT6BSsmaMa3TG4sN5XqUdUWXHmx0SIjqHmVjKVoOQa7mlS2hdS5en7Kvn67uDGqHn4z3eW1twtiNtwrSNic4zknJBrMvmUsra9GrHDisST9/wAjVftZwmNOfDbdIQ5JkJ4WUZHEhR6qHlVvLyZWLtPtlPFxaeXrS8IStC6kctV4Lc55aoktWHVOKzwrPJf4H+lUeLncXqvT/uy/ysCuPx9r+6GXXGtBER8Asr6VSFDLkhBCg2D0HQk+6rPK5XVdYfkq8Xi9vzteCV7Pr27eLIfhjpdlx3OBxZGCoHdJ28tvVTeLl+SPPtCuXhWLJ+K8Mkbjqez22e1BlywmQ4oJ4UpKuDPLix9H10y8+OKUt+RcYMly6S8ExThIUAFABQAUAFABQAUAFAGCcAnwoAS4HaPapElTUtt6Iniwh1Q4kn045VTnm429PwXa4ORLa8i92o3SLcJdvahyGn0NNrUotq4gCrGNx5JqtzsipykyxwcTlU6QrW68XK1JdTbpjjCXRhYTgg+eCNj586qRluNqXot3ijJrst6OFIASAOQrgYdECDIuM1uLDaLr7pwE8vWT0FdRDuusryc3aie1PwSt90ldbHFTJmJaWyVBJWyviCSeWcge2m5eNkxrb9CcXJx5XqfZBAAcqQWDttl2uFpU6bdKWwXkhLnCAeIDOOY2xk7iu4y3j/axd4oyfuWziWVK4lFRKlEkqJySfGuHv2M/2Lpf1pZYtvYkPTEOOOthQZZ+WvPUY6evFbb5WOZTbMNcXLVNJGzSmqGdSJklqM4wWCNlqB4gc4O3oqcGdZU9LWgz8d4dbe9jBTyuFABQAUAFABQBG369RLDBEyd3nAVhCUtpypSjk4HqB9lLy5ZxT2obixVlrrJGxdcaelNk/Du6ON0vIKT/AF9VKnl4WvYyuJmn6KYWQVqI5FRxmsavLZtr0ec4qAN0SLImvBmGw4+6fqNpKj/SpmXXiURVKVunoaIHZ3e5ICpBjxEno4riV7Bt76txwsj9+CpfOxL15Oa1rf0VqpJubClJSkoUUfWbV9dOefL7xXON1x8v5I6tLk4vwZP601rbbhZVwbYpby3ykLWpsoSgA564ydqfyOVF4+sedlfjcS4ydr8ENadA3W5W1MzjZjFe7TT4IKk+J22pOPh5Lne9DsnNxxXXWyNumlr1awVyYS1NDm6z84n3bj1il3xsse0Njk4r9Mh8bZpOmO2gxRoNjx2aXi3WpFxFxlNsKc4CjjzuBnP3ir3DyxjT7PRR5uK8nXqtjbG15YpVxYhR3XlKeWG0OFopRxE4A333PlVqeXiqlKZUriZZl016GerRVCgAoAKAMEgcyB6aAFvtCjolaTmEqTlnhdTuOYP5ZFVuXKrCyzxK65kUv7vRWKbfgANwACSdgBQGx70v2fvSwiXfONhk7pjpOFq/xH6vo5+ir+DhOvyyf4M/PzVP44/8lkQLdDtrAYgx22Gh9VCcZ9PjWlMTC1K0Zt3VvdPZ04ro5IbU2nol/g9w+OB1GS08BlTZ/LxFJzYZyzpjsOasNbQvab7PmrdOEm6PNy+A5aaSghOfE55+j76r4eGordPZYzc2rXWVoesCrxRDFAC3qDRlsu4U622Iso/91pIAUf8A2HX76r5OPF+fTH4+RcePaKvvdim2WT3M1rAP/TdTuhfoP4VQvC4emaGPOrW0RhR5UtwNVjBoGIiTqyH3hThridwepA2HtOfVTONH+qti+TesT19lzcSc44hn01rmPo9UAFABQAldqUOQ/ZG5TC18EVzicQk7FJ2z6jj2mqfOlvHtfRd4NpZNP7KpU44pPCXFlPgVEisnbf2a2keagkatGTdO2pYm3Vbrs0H5tAYKkM+fmrz6Vb41YY/KvZT5MZ8i6x6HUdomnxt3kn7A1e/WYf5KX6HN/Weh2h2A/Xk/YKqf1eL+o5fEyL/0yO0Gwn68n7A11+oj+o5fGv8A2/yZGv7EeS5H2JqVngj4LM/p9Y/25H2Jqfmkj4aM/p7Y/wBuR9ian5ZI+Kj21rmxOLCS+6jPVbKsVPySHx0TcK4Q57XewpLT6OpbUDj0+FdJp+jhpr2YuVvi3OIuNNaS60voeYPiPA1FSqWmE05e0U/qWwP2Gd3LmXI692XcfSHgfMdao5MTh6L+PKrWyG3SrKSQRyIODVdyWEzusEOTcr5DjsuOhanASsKOUAbk+wVEQ6tJM6u5iG2i9hyrZMUKAI3UV4asVqdnvNrcSgpTwI5kk4HPlzpebIscOmMw4nltSiu7z2iv3CFIiM21ptt9soKnHCogEYO2KzsnNdJpI0cXCU0qdehIqiXwoAMeFGtkPSNiEU6IFVZtSinzAirNiUDwpygTVmwJpikU6M8NdpHGzOKnRGzOKnQbN0SVIgvpkRHlsup5KQcZ9PjUeg8P2WhpDUYvcdTT4SiYyBxpTsFj9ofjTprYm50SGoLSxeba5DeABO7a+qF9DUXPZaCK6vZSkllcd91h0DvGllCsHIyDg1QqdGjNbR2afvT1gnmWwy06S2UFLhxscHY9DtXEW8b7I7vGss9WPlg1+3dblHt7sBbLj5KUrQsKTnBPLY9Ks4uWrpS0VsvDcQ6Veh1zVwpGiZHYmxXYslsOMupKVpPUVy0qWmTNOWmiiL5ATarvKgoeDyWV4SsdQQCM+e+/nWDlj47c7N/FfyQqa9ktaNE3e7W5M5nuGm1jiaS6ohTg8Rty9NPx8TJc9kJycvHjrqyIjWqZIunxWloJmcakd24oJ+UM5GfVSJx1V9PsdWWZjv8ARI3LSt2tMUyp0dCGQoJJS4FbnyFWf01wtsrfqYt6kjUox0pkyLqzYE06ZEujqgQZE+QmPDaLrygSEAgZwM9abMi6olRpK/8A7sX9q3/urvqLdoz+iV+/di/tW/8AdU9SOxHz7bMtzgROjOME8iobH0HkanRGzmxUaJ2YIqNE7JPS8tULUEF1JIC3Q0oeIV8n8RQvDB+UWdqe5i0WaRJBHe8PA1/jPL8/VXdPSOJnbKws+l7ne2FyYwQGgojvHlY4z1x4+mqix1ZbeWY8EPcYci3ynIststvNnCh+I8qrZJcvTLWOlS2h/wCzCzx24irwtSXJDhU2gf8AiSCQfWfuxVjh4513+yrzMtb6fQ/VeKRU/aJOvzF2djvvutW9z+zho8KVpwMgkbk5zkH7qyuZeVVpvwa3DjDUbS3X2JWKol4svTevLZGskeLPS63IjNBrDaOIOBIwCPDOOtaeHlwoU17RlZ+HbyOp9MUjJl3rVRmQWVCS7IS62hG5RggDJ9AGTSFvJk7L+R71jxdWyxe0fP6Mqzz75vPtrRzeYM7D+8q1KaTMj3R7CaakLdDHoMf/AKeN5Jc/lNMleRVMtauzgMUALuuJEJuxSGZKkF1xPzKM/K4uhH50AVZXJOzBFcnSJnR9uXcL/Gwn5thQecV4BJyPfj30JbZLekMPaimSWoKgkmIkqK1AbBe2M+rNRl9E4vZp0lq63wbQiFcStlbOeFQQVBYO/TrvXMZZS0zq8VN7Qp6suyL1eXZjKChrhCEBQ3IHU+ZyfdVLPfetou4I6TpkPGlyoT3ewpDrDv7TSik/1qp2qX+LLnSaXlbLu0qu5rsbC73tMOScgBXDnbiA64rZwd3jXyezFzrH8j+P0ROvLxZmLY/AuHDIkuI+bYRupKuiifq/850rlZcUz1r2N4uLLVdp9FQDwrHRssbtA6ai352Suct3uo/D82hXDx5zzPPp0q9xcE5Nuijys9Y9KS1LfbYltZDMGO2w34ITjPpPM+utOYmVqUZVVVPdMgu0b9W1fxkffUZFuTvH+4q5IpaQxs9gV2kKbPaFKQoKQopV4pODXSINnwmR/eHvtDUkB8JkY/tD32hoINRySSTknxoJMUMDvs1pk3mZ8Gi8IwOJa1HZA8fE+quSS1LFZo1lhiPG3JOXHD9JZ8/yrpLRDeyQUkLSUqAKTsQeRqSBYvWh7XPSt2Mkw3+eWvok+aeXsxSrwzQ2M1SVE78lSgTkgkZrKt6NaETGi7hbLbexJu7JUgJ+acCeLulftYHPbPjUcfJEZN2Tycd3j1DLniSGZMdD8Z1DrSxlK0HII9NbSpUtoxKly9PwVFqrR1ytLr0xvimRFKUtTyR8tGTn5Q/EbddqyM/FuG6XlGxg5UWur8MV0iqsrZZp6LJ7JVDhuaOpLZ/mrV4fpmVzPaLDq6UhY7Rf1bV/GR99c36O49lXpFcJHTPVdo4ZsYYdkOhphpbrhGQhCck1JB1/E9z/AHfK+xVQQeHbZPZQVuwZKEAbktKAHnyoA5KCTFQyT0w+7GeQ/HcU282cpWnmDXO9HSWy29L3kXq1ofOEvoPA8kdFfkRvXae0cNaZMVJAu3LWVmt0x6HJedD7RwsJZUQDjPPHnSazxL0x0YLtbRTD6+JxZHIqJ99Y11tm1E6RsgQJdykiPBjrfeVySn7yeQHma5iKt6lHV3MLdMsuw6FfhweCTdZDTq1FakRlYSnYe07c61MXFcz5Zl5eYqr8Z8HjXusEw0vWi3YVJUngfcIyGgRyHicH1VHK5PX8J9k8Xi9vzr0VmhIFZ8I0LY79lsoNXuRHUcB9jI9KSNvYT7K0OM9U0Z3KW5TLRFXiiLPaJ+rav4yK5r0dR7Kwrk6ZmukcsYNCfrNG/wALn8pqSC1akgwaAK47QLQzBlMzIyAhEgkLQkbBY6j0/hUMlCia4bO0jwTXDYxIbuzSclm6SYrjmA+2CkHbKknkPPBNTjrzojJPjZY7rzbLanHVpQhIypSjgAedNbSW2ISb8IovUk9u432dMZOWnXSUHxSMAH2CsbNadto2sGPUJMi6rMtIldNX1/T9x+FsJDiFDhdaP10+R6GnYc1Yq2hOfDOadMum0XGNdoDU2E4VsucsjBB6gjxrax2rlVPoxMmOsdOa9kHqDQ9svD7koFyNKc3U43uFHGMlJ9HTFIy8WMj36Y/Dy8mNa9oq67282q6yICnkPFhQT3iOR2B9R3xVBx0pyaCvvCo1MrW2oLbWpChyUk4NOgRZ1JmSv73I+1V+dPlsQ0jKpD7ieFx91afBThIpiYto812cMzmujk2x5D0ZwOx3VtODOFIVgijZB1fHV0/eUv7ZX51Ow0PPZ3MkzIcxUqQ68UupCS4sqxt51KZDR0doUfvtOqdA3YdS5/8AJ/mqK9Ez7KsJpLY5I8KVS3Q2ZNSlb0mqHTISZsl9sNvyXnUDklbhUPYar3kb+yxGJLykchOart7LCWjFQSO2jtEx73AbuEyYoNKUpPcNAcWxI3PTPPGOtXePxVknu2UeTy3jrpKLLtVti2mEiHAZ7thGSBkkknckk1pxChdZ9GXd1krtXs49W3CVbLBJlQWVOvpACeFOeHJxxY8s5rjPdRjbleRmCJvIlT8FIFSi4e9Ki4o5JXzJ6k1ky/Pk16X8G1NWJZXo2JNOQlnsHyNMTFNHrPka72caM5qdkaM58jU7I0YzUbJ6lhdmBzBnfxk/dXceTi1pjbcoiJ8F+I79B5soPlkc66a34OU9FJ3OHItsx2JLQUOtn2joR5GqdvT0y5CT9HEpVIqyxMGla6r3ZYjGaicmkN7HJaCgkCcDegBw7M7jNi3xERlpxyJKz3uAeFBAJC89PDz9lXeFdK9L0ylzYlxt+0W6K1jICgBb107Bh6eluyo7Li3E901xJBPGrkR6OfqqvyKmYbY/jzVZEkynkms+WaNI3sOpadQ4ptLgSQS2vOFeRxTppCqnZYsMaIkQESnW4kcqHymXXiFpPUYzk1cTx62Umsu9HM5N0Ih0N/BCQebgQvhT78+6jtjDrkGVvSun3EhaLe0pKhkKC1EEe2mdZF9mev0SsP7ub/1K/Ojqg7MP0SsP7tb/ANSvzo6oOzO+22uFa0LRAjpZSs5UEknJ9dSkl6Ibb9nZUkHDcrRbrolIuERp/h+iVDceg865qJr2jqbqfTFa+xNFWNbbdwhoS44MhCAtSseJwdhVXL+nxtK0WsX6nL5hniGx2fzSA0IIUeSXXFNk/wCoiolcSvWjqnzJ97FPWzliakCDYYTCS2fnpCFE5P7Kd/bVPlPFvrjX/Zb4qytdsj/6FiqpbGPQEiIzqVhE5ltxD6S0guJBCFnGDv44x66s8SpnLql7KvLmni3P0XQhCEJASlIHgBgVs60Yvs9VIBQAv6u03+kceO2Jao6mVlQ+TxBWRjcZFIz4flSW9D+Pn+Jt63sTb1oH4qtEmd8ZBwsI4uAtYCvLOTvVXJxfjh1v0Wo5XyWp17EsKpCosOSc0pZjf7p8FLpaaQ33jik88Zxges0/Enb0V8zWOdkzrDSLNkgomwpDrjQWEOJewSM8iCAKdlx9FtCsWXu+rHPQ8v4ZpiCsn5SEFpX+UkfcBT8VdoTK+aettE9TBYUAFABQBg8qAKf1FHd1H2gvQWXAkqcDKVK5JShGVfco1j5k83I6pmxhaw8ZU1/dkhqXs+YttnemwZb7q2E8Tjb3DhQ64wBj30zNwlEOpYvDzXdqaXsQxVA0CV0zZvj27ogGQGOJCl8XDk7dAP8AnWnYMXy312Jz5fijtodWOzLupLTnxsopQsKIDODsc7HO1XFwNNPsUnz9prqWHWiZwUAFABQAsdojE6VptbFvjuPrW8gOJbGVBGc5x13A9tVeWrrFqFstcRxOXdPRXkPRWoZTZX8ALIxkd8tKSfVz9uKoTxsz86L98nCn7I+x3mVY7imXFxxgFC0L5LT1BxXGPNWOto7yYJyTpklqTWMy/MNx3GW2I6VBRQgklSvM+FNycur8fQrFxFje97Zt0prN6wMmKuMJEVS+LAVwrSeuDyqcXLePxrwGbifI+yemPdv15YZgSFyjFWfqyE8OP82499XI5eKvvX/JSvh5p+t/8E6xdLfIQFMToziTyKHkn8asK5fpiHFL2jaqXGSMqkMgeaxU7Rz1f8EdN1NZIQPf3SKCOaUuBavYMml1nxz7oZODLXqWLF07S4bQKLXFdkK6Ld+Qj8z7qq3z4X7FstRwKf73or2LdJcW7purSh8KDpd5bEqzkejcis6cjm+/2aNY5qOn0MN/15Nu9sVBbitxkujDy0rKioeA8BVnLzKyT11or4eFOOu29kLY9PXG+pfNubQoM44ipYTueQHspGLBeXfVDsueMWu32TWmbDfrZqiA47bH2wh35ayMoCCCCeIZHI8vRT8GHNGVPqJzZsV4qSZbwrXMczQAUAFABQAUAYV9E454oAoaFYrrc5jjMSC8pSVkLKk8KUHO+SdqwlhyXTSRv1mxxO6Z61BYZlgkssTS0ouo40qbUSPMcqjNhrE0mGHNOVNyRVKGhigDBSD0qNInbDhHUA+mjQbM4qSAoACcDNADHK0Ve48FqYiOmQhaAspYVxLQD4jr6s1ZriZVPZeStPLxOuu9DP2SNPNN3PvWloSVNj5SSNxxZq3wJaVbRV/+g0+umWFV8zjNABQAUAFABQAUAFAGMDwoASO0uxTrsiC9bYyn3GVLQtKSAcKxg7nxHvqlzMNWk5Wy9ws0w2qejnsXZzGREUq+FTshxOAhpZSlr1j6R91cYuCtfn7OsvOe/wAPRXEyM7ClvRHhl1pwtqx1IONqzqlzTk0ppVKpeiYuek7pbLM1c5KEhtZAW2DlbWeRV/zrTsnGuI7sTj5MXfREVbYL9ynMwoqeJ15YCeeB4k+QG9JiHdKV9jrpRLp/R2ahsE2wSksTAlSXBlt1H0V+IHmKZmwViemLw55yraGHQOlYl6iS5dybcW1xBtnhWU4OPlHbnzHOn8Xjzkl1RX5fJrFSmTmunZ9dY1wbjxEGXFdVgPggFA68QJ6eXP3VF8K1SS8o6jm46lt+GW+lISkADAHIVrmOGKAM0AFABQAUAFABQAUAFABQAUAYNAEOvTVqXfPjlUfMzY5Kjw8QGArh5ZxSfgh38jXkb+oyKPj34JGZGZlxnY0hAWy6koWk9QRvTKSpaYuW5e0JPZvaIsaTc5KQpTrMhUZClEbIH4nbPoqjwscp1X8PRf5uSnMr+Vsbrva4l3hKiT2u8aUc88FJHIg9DV3JjnJPWiljyVjrtJ7tNujWmC1ChIKGGs4BOScnJJJ86IiYXWSLyVkrtXs7a7OQoAKACgAoAKACgD//2Q==;fontStyle=1;fontSize=14;" vertex="1" parent="1">
          <mxGeometry x="204.92000000000002" y="431.00000000000006" width="78" height="78" as="geometry" />
        </mxCell>
        <mxCell id="gSbaOcWXzJc1cmBJP-U4-39" value="&lt;font style=&quot;font-size: 14px;&quot;&gt;Deploy&lt;/font&gt;" style="edgeLabel;html=1;align=center;verticalAlign=middle;resizable=0;points=[];" vertex="1" connectable="0" parent="1">
          <mxGeometry x="630.0000034002039" y="390" as="geometry">
            <mxPoint x="-90" as="offset" />
          </mxGeometry>
        </mxCell>
      </root>
    </mxGraphModel>
  </diagram>
</mxfile>
